<mxfile host="Electron" modified="2024-02-03T15:25:22.218Z" agent="Mozilla/5.0 (Macintosh; Intel Mac OS X 10_15_7) AppleWebKit/537.36 (KHTML, like Gecko) draw.io/23.0.2 Chrome/120.0.6099.109 Electron/28.1.0 Safari/537.36" version="23.0.2" etag="UBJY0ZGtI-TWJSfbnko2" type="device">
  <diagram id="eRz4iOo6eL2ObuwE2JQ0" name="第 1 页">
    <mxGraphModel dx="795" dy="562" grid="1" gridSize="10" guides="1" tooltips="1" connect="1" arrows="1" fold="1" page="1" pageScale="1" pageWidth="827" pageHeight="1169" math="0" shadow="0">
      <root>
        <mxCell id="0" />
        <mxCell id="1" parent="0" />
        <mxCell id="21" style="edgeStyle=none;html=1;endArrow=none;endFill=0;" parent="1" source="5" edge="1">
          <mxGeometry relative="1" as="geometry">
            <mxPoint x="270.26088204686573" y="242.83275503697462" as="targetPoint" />
          </mxGeometry>
        </mxCell>
        <mxCell id="24" style="edgeStyle=none;html=1;endArrow=none;endFill=0;" parent="1" source="6" edge="1">
          <mxGeometry relative="1" as="geometry">
            <mxPoint x="401.27341644861906" y="312.9775311682322" as="targetPoint" />
          </mxGeometry>
        </mxCell>
        <mxCell id="mXsi9ts8i5AT5p1X9Mbz-26" style="edgeStyle=none;html=1;endArrow=none;endFill=0;strokeWidth=0.5;" edge="1" parent="1" source="mXsi9ts8i5AT5p1X9Mbz-27" target="mXsi9ts8i5AT5p1X9Mbz-29">
          <mxGeometry relative="1" as="geometry" />
        </mxCell>
        <mxCell id="mXsi9ts8i5AT5p1X9Mbz-27" value="A" style="ellipse;whiteSpace=wrap;html=1;fontFamily=Times New Roman;fontSize=19;strokeWidth=0.5;" vertex="1" parent="1">
          <mxGeometry x="530" y="140" width="40" height="40" as="geometry" />
        </mxCell>
        <mxCell id="mXsi9ts8i5AT5p1X9Mbz-28" style="edgeStyle=none;html=1;endArrow=none;endFill=0;strokeWidth=0.5;" edge="1" parent="1" source="mXsi9ts8i5AT5p1X9Mbz-29" target="mXsi9ts8i5AT5p1X9Mbz-30">
          <mxGeometry relative="1" as="geometry" />
        </mxCell>
        <mxCell id="mXsi9ts8i5AT5p1X9Mbz-29" value="B" style="ellipse;whiteSpace=wrap;html=1;fontFamily=Times New Roman;fontSize=19;strokeWidth=0.5;" vertex="1" parent="1">
          <mxGeometry x="498.5" y="190" width="40" height="40" as="geometry" />
        </mxCell>
        <mxCell id="mXsi9ts8i5AT5p1X9Mbz-30" value="C" style="ellipse;whiteSpace=wrap;html=1;fontFamily=Times New Roman;fontSize=19;strokeWidth=0.5;" vertex="1" parent="1">
          <mxGeometry x="528.5" y="240" width="40" height="40" as="geometry" />
        </mxCell>
        <mxCell id="mXsi9ts8i5AT5p1X9Mbz-31" style="edgeStyle=none;html=1;endArrow=none;endFill=0;strokeWidth=0.5;" edge="1" parent="1" target="mXsi9ts8i5AT5p1X9Mbz-32">
          <mxGeometry relative="1" as="geometry">
            <mxPoint x="561.5" y="276" as="sourcePoint" />
          </mxGeometry>
        </mxCell>
        <mxCell id="mXsi9ts8i5AT5p1X9Mbz-32" value="D" style="ellipse;whiteSpace=wrap;html=1;fontFamily=Times New Roman;fontSize=19;strokeWidth=0.5;" vertex="1" parent="1">
          <mxGeometry x="561.5" y="289" width="40" height="40" as="geometry" />
        </mxCell>
        <mxCell id="mXsi9ts8i5AT5p1X9Mbz-33" value="" style="group" vertex="1" connectable="0" parent="1">
          <mxGeometry x="300" y="140" width="133" height="189" as="geometry" />
        </mxCell>
        <mxCell id="2" value="A" style="ellipse;whiteSpace=wrap;html=1;fontFamily=Times New Roman;fontSize=19;strokeWidth=0.5;" parent="mXsi9ts8i5AT5p1X9Mbz-33" vertex="1">
          <mxGeometry width="40" height="40" as="geometry" />
        </mxCell>
        <mxCell id="7" value="B" style="ellipse;whiteSpace=wrap;html=1;fontFamily=Times New Roman;fontSize=19;strokeWidth=0.5;" parent="mXsi9ts8i5AT5p1X9Mbz-33" vertex="1">
          <mxGeometry x="30" y="50" width="40" height="40" as="geometry" />
        </mxCell>
        <mxCell id="20" style="edgeStyle=none;html=1;endArrow=none;endFill=0;strokeWidth=0.5;" parent="mXsi9ts8i5AT5p1X9Mbz-33" source="2" target="7" edge="1">
          <mxGeometry relative="1" as="geometry" />
        </mxCell>
        <mxCell id="8" value="C" style="ellipse;whiteSpace=wrap;html=1;fontFamily=Times New Roman;fontSize=19;strokeWidth=0.5;" parent="mXsi9ts8i5AT5p1X9Mbz-33" vertex="1">
          <mxGeometry x="60" y="100" width="40" height="40" as="geometry" />
        </mxCell>
        <mxCell id="23" style="edgeStyle=none;html=1;endArrow=none;endFill=0;strokeWidth=0.5;" parent="mXsi9ts8i5AT5p1X9Mbz-33" source="7" target="8" edge="1">
          <mxGeometry relative="1" as="geometry" />
        </mxCell>
        <mxCell id="mXsi9ts8i5AT5p1X9Mbz-24" style="edgeStyle=none;html=1;endArrow=none;endFill=0;strokeWidth=0.5;" edge="1" parent="mXsi9ts8i5AT5p1X9Mbz-33" target="mXsi9ts8i5AT5p1X9Mbz-25">
          <mxGeometry relative="1" as="geometry">
            <mxPoint x="93" y="136" as="sourcePoint" />
          </mxGeometry>
        </mxCell>
        <mxCell id="mXsi9ts8i5AT5p1X9Mbz-25" value="D" style="ellipse;whiteSpace=wrap;html=1;fontFamily=Times New Roman;fontSize=19;strokeWidth=0.5;" vertex="1" parent="mXsi9ts8i5AT5p1X9Mbz-33">
          <mxGeometry x="93" y="149" width="40" height="40" as="geometry" />
        </mxCell>
      </root>
    </mxGraphModel>
  </diagram>
</mxfile>
